<?xml version="1.0" encoding="UTF-8"?>
<svg width="1200px" height="510px" viewBox="0 0 1200 510" version="1.1" xmlns="http://www.w3.org/2000/svg" xmlns:xlink="http://www.w3.org/1999/xlink">
    <!-- Generator: Sketch 51.2 (57519) - http://www.bohemiancoding.com/sketch -->
    <title>galaxy-edge-2</title>
    <desc>Created with Sketch.</desc>
    <defs></defs>
    <g id="Page-1" stroke="none" stroke-width="1" fill="none" fill-rule="evenodd">
        <g id="Artboard-Copy" transform="translate(0.000000, -90.000000)" fill="#A681E5">
            <path d="M-2.84217094e-14,90 L1200,90 L1200,144 C1166.17006,153.34359 1130.83673,166.010257 1094,182 C1039.42107,205.448492 981.182687,241.219698 926,263 C870.352872,283.939801 814.512153,287.491428 761,307 C707.436925,325.869903 668.472341,354.528442 600,374 C531.527659,394.418342 487.684161,392.774939 429,410 C370.551785,426.953496 337.016473,452.686374 281,475 C224.31259,498.195932 157.838823,507.21682 102,535 C64.4445689,552.866559 30.4445689,574.533226 -2.84217094e-14,600 L-2.84217094e-14,90 Z" id="galaxy-edge-2"></path>
        </g>
    </g>
</svg>