<?xml version="1.0" encoding="UTF-8"?>
<svg width="1200px" height="510px" viewBox="0 0 1200 510" version="1.1" xmlns="http://www.w3.org/2000/svg" xmlns:xlink="http://www.w3.org/1999/xlink">
    <!-- Generator: Sketch 51.2 (57519) - http://www.bohemiancoding.com/sketch -->
    <title>galaxy-edge</title>
    <desc>Created with Sketch.</desc>
    <defs></defs>
    <g id="Page-1" stroke="none" stroke-width="1" fill="none" fill-rule="evenodd">
        <g id="Artboard-Copy" transform="translate(0.000000, -90.000000)" fill="#302345">
            <path d="M-2.84217094e-14,90 L1200,90 L1200,144 C1184.48198,170.092692 1156.02518,193.265033 1114.6296,213.517022 C1052.53624,243.895006 986.287399,228.347945 921.495363,242.265055 C856.703327,256.182165 832.164507,298.453578 778.626893,317.642815 C725.089279,336.832053 668.472341,325.05505 600,345 C531.527659,364.94495 544.117827,398.184655 451.573986,425.983793 C359.030145,453.78293 323.17035,433.431314 259.532349,457.585732 C195.894349,481.74015 165.478816,534.52821 107.146878,567.264105 C68.258919,589.088035 32.5432931,600 -2.84217094e-14,600 L-2.84217094e-14,90 Z" id="galaxy-edge"></path>
        </g>
    </g>
</svg>