<?xml version="1.0" encoding="UTF-8"?>
<svg width="54px" height="54px" viewBox="0 0 54 54" version="1.1" xmlns="http://www.w3.org/2000/svg" xmlns:xlink="http://www.w3.org/1999/xlink">
    <g id="icon-twitter" stroke="none" stroke-width="1" fill="none" fill-rule="evenodd">
        <path d="M34.526149,20.8457316 C35.4160944,20.2841254 36.0989611,19.3936155 36.41944,18.3328037 C35.5861948,18.8541095 34.6654341,19.2311137 33.6830428,19.4352159 C32.899102,18.5512061 31.7786582,18 30.5386512,18 C28.1597112,18 26.231907,20.0345226 26.231907,22.5435505 C26.231907,22.8997544 26.2676528,23.2468583 26.3416094,23.578362 C22.762106,23.3885599 19.5881317,21.5815398 17.4618771,18.8307092 C17.0908611,19.5041167 16.8788519,20.2841254 16.8788519,21.1161346 C16.8788519,22.6917521 17.6393731,24.0827676 18.7955626,24.8991767 C18.0892763,24.8757764 17.4248987,24.6690741 16.8431062,24.3310703 L16.8431062,24.386971 C16.8431062,26.5891954 18.3271703,28.4261158 20.3005811,28.8421205 C19.9381933,28.9487217 19.558549,29.0020222 19.1641134,29.0020222 C18.8867758,29.0020222 18.6156013,28.9747219 18.3542877,28.9214213 C18.9015672,30.7258414 20.4928685,32.041456 22.3787639,32.0765564 C20.9033281,33.29597 19.0457827,34.021378 17.0279979,34.021378 C16.6804015,34.021378 16.3365029,34.0018778 16,33.9589773 C17.9068498,35.2472916 20.1711569,36 22.6043317,36 C30.5300229,36 34.8614193,29.0761231 34.8614193,23.0713563 C34.8614193,22.8737542 34.858954,22.677452 34.8503258,22.4837498 C35.6921993,21.8428427 36.4243705,21.0420338 37,20.1307237 C36.2271527,20.4921277 35.3963726,20.7365304 34.526149,20.8457316 Z" id="Shape" fill="#89A7AB"></path>
    </g>
</svg>
