<?xml version="1.0" encoding="UTF-8"?>
<svg width="54px" height="54px" viewBox="0 0 54 54" version="1.1" xmlns="http://www.w3.org/2000/svg" xmlns:xlink="http://www.w3.org/1999/xlink">
    <g id="icon-dribbble" stroke="none" stroke-width="1" fill="none" fill-rule="evenodd">
        <path d="M37.7762098,24.7862896 C37.6326219,24.0787818 37.4152996,23.3829149 37.1345916,22.7180904 C36.8603516,22.0662002 36.5175516,21.4375919 36.120421,20.8503733 C35.7271712,20.2683285 35.27571,19.719913 34.7789734,19.2232348 C34.2809431,18.7252631 33.7337567,18.273855 33.1503499,17.8806514 C32.5630623,17.4822741 31.93438,17.1421012 31.2824131,16.8653066 C30.6175104,16.5859251 29.9215617,16.3673349 29.2152643,16.2250573 C28.4908567,16.0763125 27.7457517,16 27.0006468,16 C26.2542483,16 25.5091433,16.0763125 24.7847357,16.2250573 C24.0784383,16.3673349 23.3824896,16.5859251 22.7175869,16.8653066 C22.06562,17.1421012 21.4369377,17.4822741 20.8483566,17.8806514 C20.2662433,18.273855 19.7190569,18.7252631 19.2210266,19.2232348 C18.7229964,19.719913 18.2728288,20.2683285 17.879579,20.8503733 C17.4811548,21.4375919 17.1396484,22.0662002 16.8641148,22.7180904 C16.5834068,23.3829149 16.3673781,24.0787818 16.2224966,24.7862896 C16.0750279,25.5080252 16,26.2543359 16,26.9993533 C16,27.7456641 16.0750279,28.4919748 16.2224966,29.2162973 C16.3673781,29.9212182 16.5834068,30.6183785 16.8641148,31.2819096 C17.1396484,31.9337998 17.4811548,32.5637016 17.879579,33.1522135 C18.2728288,33.7342583 18.7229964,34.280087 19.2210266,34.7780587 C19.7190569,35.2760303 20.2662433,35.726145 20.8483566,36.1193486 C21.4369377,36.5177259 22.06562,36.8591922 22.7175869,37.1346934 C23.3824896,37.4153683 24.0784383,37.6300782 24.7847357,37.7749427 C25.5091433,37.9249809 26.2542483,38 27.0006468,38 C27.7457517,38 28.4908567,37.9249809 29.2152643,37.7749427 C29.9215617,37.6300782 30.6175104,37.4153683 31.2824131,37.1346934 C31.93438,36.8591922 32.5630623,36.5177259 33.1503499,36.1193486 C33.7337567,35.726145 34.2809431,35.2760303 34.7789734,34.7780587 C35.27571,34.280087 35.7271712,33.7342583 36.120421,33.1522135 C36.5175516,32.5637016 36.8603516,31.9337998 37.1345916,31.2819096 C37.4152996,30.6183785 37.6326219,29.9212182 37.7762098,29.2162973 C37.9249721,28.4919748 38,27.7456641 38,26.9993533 C38,26.2543359 37.9249721,25.5080252 37.7762098,24.7862896 L37.7762098,24.7862896 Z M36.3920739,26.9062261 C36.2562474,26.8764772 33.0766155,26.1922512 29.849121,26.5983891 C29.7818545,26.4380034 29.7145881,26.2763243 29.6460281,26.1146452 C29.4494032,25.6541831 29.2398424,25.1988947 29.0212266,24.7513669 C32.7312283,23.236757 34.2369613,21.058616 34.2550714,21.0327474 C35.571941,22.6340173 36.3700829,24.6776412 36.3920739,26.9062261 L36.3920739,26.9062261 Z M33.2046804,19.950144 C33.1813959,19.9863602 31.843829,22.023517 28.296819,23.3518725 C26.69148,20.4015521 24.92703,18.0578517 24.7860293,17.8715974 C25.4962074,17.6995708 26.2374316,17.6064436 27.0006468,17.6064436 C29.378256,17.6064436 31.5488916,18.4937386 33.2046804,19.950144 L33.2046804,19.950144 Z M24.7498089,17.879358 C24.7498089,17.8806514 24.7485153,17.8806514 24.7485153,17.8806514 C24.7485153,17.8806514 24.7368731,17.8832383 24.7200564,17.8871186 C24.7291115,17.8845317 24.7394602,17.8832383 24.7498089,17.879358 L24.7498089,17.879358 Z M22.9918269,18.5040861 C23.1160111,18.6722323 24.8545893,21.0262802 26.4806256,23.9171027 C21.9698947,25.116115 18.054213,25.068258 17.8058447,25.0643777 C18.4164168,22.1541537 20.3710237,19.7419013 22.9918269,18.5040861 L22.9918269,18.5040861 Z M17.605339,26.9993533 C17.605339,26.899759 17.6105133,26.8014581 17.6131005,26.7031572 C17.7786794,26.7070375 22.4213559,26.8118055 27.2580702,25.3644541 C27.5271359,25.8908813 27.7845593,26.4263625 28.0199918,26.9605503 C27.8958076,26.995473 27.772917,27.0329825 27.6500265,27.073079 C22.5804669,28.7118584 20.0088199,33.2725028 20.0088199,33.2725028 C20.0088199,33.2725028 20.0127007,33.2763831 20.0127007,33.2776765 C18.5160228,31.6130284 17.605339,29.4128991 17.605339,26.9993533 L17.605339,26.9993533 Z M27.0006468,36.3935564 C24.7265244,36.3935564 22.6412654,35.5851608 21.015229,34.241284 C21.1394132,34.3408784 21.2260834,34.40555 21.2260834,34.40555 C21.2260834,34.40555 23.0267537,30.4786878 28.5982243,28.537245 C28.6189216,28.5294844 28.639619,28.5230172 28.6616099,28.5165501 C29.9836538,31.9519078 30.5282531,34.8285026 30.6679603,35.6498324 C29.5412477,36.1284026 28.3006997,36.3935564 27.0006468,36.3935564 L27.0006468,36.3935564 Z M32.2500147,34.790993 C32.1542894,34.2244694 31.653672,31.4668705 30.4208855,28.0819566 C33.4543423,27.5969193 36.0816135,28.4285966 36.2756512,28.4919748 C35.8578232,31.1085896 34.3585582,33.3669234 32.2500147,34.790993 L32.2500147,34.790993 Z" id="Shape" fill="#89A7AB"></path>
    </g>
</svg>
