<?xml version="1.0" encoding="UTF-8"?>
<svg width="54px" height="54px" viewBox="0 0 54 54" version="1.1" xmlns="http://www.w3.org/2000/svg" xmlns:xlink="http://www.w3.org/1999/xlink">
    <g id="icon-email" stroke="none" stroke-width="1" fill="none" fill-rule="evenodd">
        <path d="M18.0155685,23.8440347 C17.531274,23.5315561 17.0741644,23.1018124 16.6445274,22.5549406 C16.2148904,22.0080688 16,21.5001027 16,21.0313164 C16,20.4510185 16.1621027,19.9673 16.4863082,19.5802978 C16.8105137,19.1934326 17.2733767,19 17.8748973,19 L35.1249589,19 C35.6325548,19 36.0721164,19.1748017 36.4432123,19.5245421 C36.8143082,19.8742825 37,20.2947107 37,20.7858268 C37,21.3736592 36.8086986,21.9354631 36.4256644,22.4709646 C36.042774,23.00674 35.5663904,23.46443 34.9960822,23.8437607 C32.0586712,25.7858953 30.2303767,26.9949861 29.511774,27.47117 C29.4336712,27.523364 29.2675411,27.6366563 29.0136712,27.811595 C28.7598014,27.9865337 28.5489384,28.1280464 28.3809384,28.235859 C28.2129384,28.3436717 28.0098425,28.4644985 27.7716507,28.5984766 C27.5334589,28.7321808 27.3086438,28.8328698 27.0977808,28.8995849 C26.886774,28.966711 26.6914452,29 26.5117945,29 L26.5,29 L26.4882055,29 C26.3085548,29 26.113226,28.966711 25.9022192,28.8995849 C25.6913562,28.8328698 25.4666849,28.7323178 25.2283493,28.5984766 C24.9900137,28.4646355 24.7869178,28.3436717 24.6189178,28.235859 C24.4510616,28.1280464 24.2400548,27.9865337 23.9861849,27.811595 C23.7323151,27.6367933 23.5663288,27.523364 23.488226,27.47117 C22.7772466,26.9951231 21.7538562,26.3161911 20.417911,25.434511 C19.0819658,24.5528309 18.2812329,24.0225352 18.0155685,23.8440347 Z M35.8280274,25.0031264 C36.2734863,24.7033773 36.664,24.3688131 37,24 L37,33.1549437 C37,33.6624509 36.8166096,34.0965069 36.4492534,34.4579608 C36.0820411,34.8194146 35.6406096,35 35.1251027,35 L17.8750411,35 C17.3593904,35 16.9179589,34.8194146 16.5507466,34.4579608 C16.1835342,34.0966484 16,33.6624509 16,33.1549437 L16,24 C16.3437671,24.376597 16.7383082,24.7111611 17.1836233,25.0031264 C20.0117192,26.8940367 21.9530685,28.2201222 23.0078151,28.9811 C23.4531301,29.3039177 23.8144452,29.5558315 24.0917603,29.7362753 C24.3690753,29.9170023 24.7383014,30.1014088 25.1991507,30.2897781 C25.66,30.4781473 26.0897808,30.5722612 26.4882055,30.5722612 L26.5,30.5722612 L26.5119384,30.5722612 C26.910363,30.5722612 27.34,30.4781473 27.8008493,30.2897781 C28.2618425,30.1014088 28.6309247,29.9170023 28.9082397,29.7362753 C29.1856986,29.5558315 29.5470137,29.3039177 29.9923288,28.9811 C31.3202192,28.0355741 33.2657397,26.7094886 35.8280274,25.0031264 Z" id="Shape" fill="#89A7AB"></path>
    </g>
</svg>
