<?xml version="1.0" encoding="UTF-8"?>
<svg width="54px" height="54px" viewBox="0 0 54 54" version="1.1" xmlns="http://www.w3.org/2000/svg" xmlns:xlink="http://www.w3.org/1999/xlink">
    <!-- Generator: Sketch 52.2 (67145) - http://www.bohemiancoding.com/sketch -->
    <title>icon-medium</title>
    <desc>Created with Sketch.</desc>
    <g id="icon-medium" stroke="none" stroke-width="1" fill="none" fill-rule="evenodd">
        <path d="M37.9327307,21.4069792 C37.9646836,21.4322052 37.9751945,21.4767711 37.9531217,21.5129283 L31.2837923,32.3504309 L26.4889636,24.5589657 L30.3096489,18.3500105 C30.4467101,18.1276014 30.6996006,18 30.9537524,18 C31.0151356,18 31.0763086,18.0094597 31.1362203,18.0248055 C31.1839395,18.0369981 31.231028,18.0521337 31.2758041,18.0746269 L37.9123397,21.3928947 L37.9199075,21.3966786 C37.9251629,21.3992012 37.9285264,21.4036157 37.9327307,21.4069792 Z M24.384486,23.144629 L30.6665966,33.353374 L24.384486,30.2123187 L24.384486,23.144629 Z M31.6104688,33.8253101 L38,23.4422956 L38,35.8848013 C38,36.511667 37.4544881,36.7473197 36.781585,36.4107631 L31.6104688,33.8253101 Z M23.2938827,21.4170696 C23.3180576,21.4290519 23.3334034,21.4538575 23.3334034,21.4807652 L23.3334034,35.8848013 C23.3334034,36.345596 23.084507,36.6201387 22.7296616,36.6201387 C22.6037419,36.6201387 22.4643683,36.585453 22.3180576,36.5122977 L16.6092075,33.6579777 C16.2741223,33.4904351 16,33.0468783 16,32.6722724 L16,18.6781585 C16,18.3096489 16.199075,18.0899727 16.4828674,18.0899727 C16.5837713,18.0899727 16.695186,18.1177213 16.8122766,18.1761614 L23.2938827,21.4170696 Z" id="Shape" fill="#89A7AB"></path>
    </g>
</svg>