<?xml version="1.0" encoding="UTF-8"?>
<svg width="54px" height="54px" viewBox="0 0 54 54" version="1.1" xmlns="http://www.w3.org/2000/svg" xmlns:xlink="http://www.w3.org/1999/xlink">
    <g id="icon-linkedin" stroke="none" stroke-width="1" fill="none" fill-rule="evenodd">
        <path d="M17.5044685,23.4131131 L21.4026341,23.4131131 L21.4026341,36.9987194 L17.5044685,36.9987194 L17.5044685,23.4131131 Z M19.3541863,21.7137918 L19.3259643,21.7137918 C17.9148636,21.7137918 17,20.6752465 17,19.3600973 C17,18.0180561 17.9419097,17 19.3812324,17 C20.8193791,17 21.7036689,18.0154949 21.7318909,19.3562556 C21.7318909,20.6714048 20.8193791,21.7137918 19.3541863,21.7137918 L19.3541863,21.7137918 Z M37,37 L32.5797272,37 L32.5797272,29.9683698 C32.5797272,28.1281854 31.8882879,26.8732232 30.3678269,26.8732232 C29.2048448,26.8732232 28.5580903,27.7196824 28.2570555,28.537969 C28.1441675,28.8299398 28.1618062,29.2384428 28.1618062,29.6482264 L28.1618062,37 L23.7826905,37 C23.7826905,37 23.8391345,24.5451402 23.7826905,23.4131131 L28.1618062,23.4131131 L28.1618062,25.5452683 C28.420508,24.6130106 29.8198495,23.2824946 32.0529163,23.2824946 C34.8233772,23.2824946 37,25.2379306 37,29.4446152 L37,37 L37,37 Z" id="Shape" fill="#89A7AB"></path>
    </g>
</svg>
